<svg id="SvgjsSvg1000" xmlns="http://www.w3.org/2000/svg" version="1.1" xmlns:xlink="http://www.w3.org/1999/xlink" xmlns:svgjs="http://svgjs.com/svgjs" width="169" height="64" viewBox="0 0 169 64"><title>Fill 1</title><desc>Created with Avocode.</desc><defs id="SvgjsDefs1001"></defs><path id="SvgjsPath1007" d="M206 21H222.88V26.8H212.74V32.61H221.14000000000001V38.41H212.74V48.669999999999995H206Z " fill="#1d1d1b" fill-opacity="1" transform="matrix(1,0,0,1,-135,-9)"></path><path id="SvgjsPath1008" d="M246.85 34.12C246.85 29.599999999999998 243.76999999999998 26.189999999999998 239.41 26.189999999999998C235.06 26.189999999999998 231.97 29.599999999999998 231.97 34.12C231.97 38.839999999999996 235.06 42.41 239.41 42.41C243.77 42.41 246.85 38.839999999999996 246.85 34.12ZM253.82 34.12C253.82 42.25 247.97 48.599999999999994 239.41 48.599999999999994C230.85999999999999 48.599999999999994 225 42.24999999999999 225 34.11999999999999C225 26.18999999999999 230.86 19.999999999999993 239.41 19.999999999999993C247.97 19.999999999999993 253.82 26.189999999999994 253.82 34.11999999999999Z " fill="#1d1d1b" fill-opacity="1" transform="matrix(1,0,0,1,-135,-9)"></path><path id="SvgjsPath1009" d="M267.67 33.54C269.83000000000004 33.54 271.18 32.339999999999996 271.18 30.13C271.18 28.74 270.83 27.689999999999998 269.56 27.189999999999998C268.94 26.919999999999998 268.13 26.799999999999997 267.02 26.799999999999997H264.74V33.54ZM258 21H267.59C270.40999999999997 21 271.76 21.19 272.95 21.66C276.07 22.86 278.03999999999996 25.68 278.03999999999996 29.71C278.03999999999996 32.65 276.65 35.86 273.90999999999997 37.25V37.33C273.90999999999997 37.33 274.29999999999995 37.83 274.95 38.989999999999995L280.31 48.669999999999995H272.8L267.90000000000003 39.339999999999996H264.74V48.669999999999995H258Z " fill="#1d1d1b" fill-opacity="1" transform="matrix(1,0,0,1,-135,-9)"></path><path id="SvgjsPath1010" d="M288.36 26.8H280V21H303.47V26.8H295.1V48.67H288.36Z " fill="#1d1d1b" fill-opacity="1" transform="matrix(1,0,0,1,-135,-9)"></path><path id="SvgjsPath1011" d="M206.44 56H207.22L208.84 59.35C208.99 59.690000000000005 209.18 60.120000000000005 209.18 60.120000000000005H209.20000000000002C209.20000000000002 60.120000000000005 209.37 59.7 209.53000000000003 59.35L211.17000000000002 56H211.93L212.38 61.44H211.66L211.39 57.919999999999995C211.38 57.629999999999995 211.39 56.98 211.39 56.98H211.36999999999998C211.36999999999998 56.98 211.24999999999997 57.33 211.01999999999998 57.769999999999996L209.51999999999998 60.809999999999995H208.85L207.35999999999999 57.78999999999999C207.14999999999998 57.36999999999999 206.99999999999997 56.97999999999999 206.99999999999997 56.97999999999999H206.97999999999996C206.97999999999996 56.97999999999999 206.99999999999997 57.62999999999999 206.97999999999996 57.91999999999999L206.70999999999995 61.43999999999999H205.99999999999994Z " fill="#1d1d1b" fill-opacity="1" transform="matrix(1,0,0,1,-135,-9)"></path><path id="SvgjsPath1012" d="M217.2 58.29C217.14999999999998 57.16 216.45999999999998 56.6 215.66 56.6C214.75 56.6 213.97 57.2 213.79999999999998 58.29ZM217.94 58.51C217.94 58.629999999999995 217.93 58.75 217.92 58.87H213.76C213.79999999999998 60.26 214.73999999999998 61.019999999999996 215.85999999999999 61.019999999999996C216.45 61.019999999999996 217.07 60.779999999999994 217.51 60.379999999999995L217.84 60.94C217.34 61.4 216.55 61.69 215.84 61.69C214.23 61.69 213 60.53 213 58.849999999999994C213 57.06999999999999 214.22 55.99999999999999 215.68 55.99999999999999C217.18 55.99999999999999 217.94 57.15999999999999 217.94 58.50999999999999Z " fill="#1d1d1b" fill-opacity="1" transform="matrix(1,0,0,1,-135,-9)"></path><path id="SvgjsPath1013" d="M223.26 58.46C223.26 57.26 222.48999999999998 56.56 221.57 56.56C220.51999999999998 56.56 219.79999999999998 57.38 219.79999999999998 58.440000000000005C219.79999999999998 59.650000000000006 220.57999999999998 60.35 221.52999999999997 60.35C222.48999999999998 60.35 223.25999999999996 59.65 223.25999999999996 58.46ZM223.23 53L223.5 53.62L221.41 54.58C220.19 55.16 219.75 55.94 219.68 57.089999999999996H219.70000000000002C220.19000000000003 56.209999999999994 220.92000000000002 55.94 221.72000000000003 55.94C223.05000000000004 55.94 224.02000000000004 56.87 224.02000000000004 58.449999999999996C224.02000000000004 59.949999999999996 223.00000000000003 60.99999999999999 221.55000000000004 60.99999999999999C219.78000000000003 60.99999999999999 219.00000000000003 59.629999999999995 219.00000000000003 57.78999999999999C219.00000000000003 55.94999999999999 219.43000000000004 54.75999999999999 221.23000000000002 53.93999999999999Z " fill="#1d1d1b" fill-opacity="1" transform="matrix(1,0,0,1,-135,-9)"></path><path id="SvgjsPath1014" d="M230.2 58.29C230.14999999999998 57.16 229.47 56.6 228.66 56.6C227.75 56.6 226.97 57.2 226.79999999999998 58.29ZM230.94 58.51C230.94 58.629999999999995 230.93 58.75 230.92 58.87H226.76C226.79999999999998 60.26 227.73999999999998 61.019999999999996 228.85999999999999 61.019999999999996C229.45 61.019999999999996 230.07 60.779999999999994 230.51 60.379999999999995L230.84 60.94C230.34 61.4 229.55 61.69 228.84 61.69C227.23 61.69 226 60.53 226 58.849999999999994C226 57.06999999999999 227.22 55.99999999999999 228.68 55.99999999999999C230.18 55.99999999999999 230.94 57.15999999999999 230.94 58.50999999999999Z " fill="#1d1d1b" fill-opacity="1" transform="matrix(1,0,0,1,-135,-9)"></path><path id="SvgjsPath1015" d="M231 60.82C231.9 60.68 232.29 59.65 232.29 57.64V56H235.60999999999999V61.44H234.88V56.64H233V57.64C233 60.21 232.39 61.37 231 61.480000000000004Z " fill="#1d1d1b" fill-opacity="1" transform="matrix(1,0,0,1,-135,-9)"></path><path id="SvgjsPath1016" d="M239.82 60.85C240.69 60.85 241.04999999999998 60.410000000000004 241.04999999999998 59.76C241.04999999999998 59.1 240.67999999999998 58.66 239.82999999999998 58.66H238.73V60.849999999999994ZM238 56H238.73V58.08H239.89999999999998C240.86999999999998 58.08 241.79999999999998 58.489999999999995 241.79999999999998 59.769999999999996C241.79999999999998 60.76 241.18999999999997 61.44 239.88 61.44H238Z " fill="#1d1d1b" fill-opacity="1" transform="matrix(1,0,0,1,-135,-9)"></path><path id="SvgjsPath1017" d="M243 56H243.73V58.32H246.89999999999998V56H247.62999999999997V61.44H246.89999999999998V58.97H243.73V61.44H243Z " fill="#1d1d1b" fill-opacity="1" transform="matrix(1,0,0,1,-135,-9)"></path><path id="SvgjsPath1018" d="M251.62 59.05V58.8H251.3C250.46 58.8 248.74 58.83 248.74 60.04C248.74 60.55 249.15 61.08 249.96 61.08C251 61.08 251.62 60 251.62 59.05ZM251.62 58.21V58.06C251.62 57.02 251.04 56.660000000000004 250.28 56.660000000000004C249.73 56.660000000000004 249.18 56.85 248.74 57.18000000000001L248.41 56.61000000000001C248.84 56.25000000000001 249.6 56.00000000000001 250.32 56.00000000000001C251.63 56.00000000000001 252.35 56.720000000000006 252.35 58.080000000000005V61.56H251.65V60.93C251.65 60.66 251.68 60.47 251.68 60.47H251.66C251.38 61.129999999999995 250.7 61.69 249.82999999999998 61.69C248.91 61.69 247.99999999999997 61.16 247.99999999999997 60.11C247.99999999999997 58.32 250.25999999999996 58.21 251.28999999999996 58.21Z " fill="#1d1d1b" fill-opacity="1" transform="matrix(1,0,0,1,-135,-9)"></path><path id="SvgjsPath1019" d="M257.39 58.78V56.56H256.36C255.55 56.56 255.05 56.88 255.05 57.650000000000006C255.05 58.39000000000001 255.60000000000002 58.78000000000001 256.3 58.78000000000001ZM255.3 59.57C255.41000000000003 59.39 255.55 59.24 255.55 59.24V59.22C254.91000000000003 59.089999999999996 254.3 58.54 254.3 57.65C254.3 56.559999999999995 255.10000000000002 56 256.22 56H258.12V61.44H257.39V59.349999999999994H256.27L254.85 61.44H254Z " fill="#1d1d1b" fill-opacity="1" transform="matrix(1,0,0,1,-135,-9)"></path><path id="SvgjsPath1020" d="M267.8 58.82C267.8 60.14 266.91 60.97 265.63 61.05V56.66C266.90999999999997 56.72 267.8 57.519999999999996 267.8 58.81999999999999ZM264.92 61.05C263.64000000000004 60.97 262.74 60.14 262.74 58.82C262.74 57.52 263.64 56.72 264.92 56.66ZM264.92 56.01C263.23 56.089999999999996 262 57.169999999999995 262 58.82C262 60.51 263.23 61.61 264.92 61.68V63.73H265.63V61.68C267.32 61.61 268.54 60.51 268.54 58.82C268.54 57.17 267.32 56.09 265.63 56.01V54H264.92Z " fill="#1d1d1b" fill-opacity="1" transform="matrix(1,0,0,1,-135,-9)"></path><path id="SvgjsPath1021" d="M273.62 59.05V58.8H273.3C272.47 58.8 270.74 58.83 270.74 60.04C270.74 60.55 271.15000000000003 61.08 271.96000000000004 61.08C273.00000000000006 61.08 273.62000000000006 60 273.62000000000006 59.05ZM273.62 58.21V58.06C273.62 57.02 273.05 56.660000000000004 272.28000000000003 56.660000000000004C271.73 56.660000000000004 271.18 56.85 270.74 57.18000000000001L270.41 56.61000000000001C270.84000000000003 56.25000000000001 271.6 56.00000000000001 272.32000000000005 56.00000000000001C273.63000000000005 56.00000000000001 274.35 56.720000000000006 274.35 58.080000000000005V61.56H273.65000000000003V60.93C273.65000000000003 60.66 273.68 60.47 273.68 60.47H273.66C273.38000000000005 61.129999999999995 272.70000000000005 61.69 271.83000000000004 61.69C270.91 61.69 270.00000000000006 61.16 270.00000000000006 60.11C270.00000000000006 58.32 272.26000000000005 58.21 273.2900000000001 58.21Z " fill="#1d1d1b" fill-opacity="1" transform="matrix(1,0,0,1,-135,-9)"></path><path id="SvgjsPath1022" d="M279.26 58.46C279.26 57.26 278.49 56.56 277.57 56.56C276.52 56.56 275.8 57.38 275.8 58.440000000000005C275.8 59.650000000000006 276.58 60.35 277.53000000000003 60.35C278.49 60.35 279.26000000000005 59.65 279.26000000000005 58.46ZM279.23 53L279.5 53.62L277.41 54.58C276.18 55.16 275.75 55.94 275.68 57.089999999999996H275.7C276.18 56.209999999999994 276.92 55.94 277.71999999999997 55.94C279.04999999999995 55.94 280.01 56.87 280.01 58.449999999999996C280.01 59.949999999999996 279 60.99999999999999 277.55 60.99999999999999C275.78000000000003 60.99999999999999 275 59.629999999999995 275 57.78999999999999C275 55.94999999999999 275.43 54.75999999999999 277.23 53.93999999999999Z " fill="#1d1d1b" fill-opacity="1" transform="matrix(1,0,0,1,-135,-9)"></path><path id="SvgjsPath1023" d="M286.19 58.85C286.19 57.52 285.48 56.67 284.46999999999997 56.67C283.55999999999995 56.67 282.71 57.32 282.71 58.86C282.71 59.95 283.32 61.04 284.43 61.04C285.39 61.04 286.19 60.24 286.19 58.85ZM282 56.13H282.7V56.7C282.7 56.940000000000005 282.67 57.120000000000005 282.67 57.120000000000005H282.69C283.02 56.42 283.73 56.00000000000001 284.57 56.00000000000001C286.04 56.00000000000001 286.93 57.17000000000001 286.93 58.84C286.93 60.57 285.92 61.690000000000005 284.51 61.690000000000005C283.74 61.690000000000005 283.08 61.300000000000004 282.71999999999997 60.61000000000001H282.7C282.7 60.61000000000001 282.72999999999996 60.81000000000001 282.72999999999996 61.09V63.730000000000004H281.99999999999994Z " fill="#1d1d1b" fill-opacity="1" transform="matrix(1,0,0,1,-135,-9)"></path><path id="SvgjsPath1024" d="M288 56H288.71V59.57C288.71 59.9 288.69 60.36 288.68 60.38H288.7C288.71999999999997 60.330000000000005 289.03999999999996 59.870000000000005 289.26 59.57L291.92 56H292.62V61.44H291.9V57.86C291.9 57.55 291.92999999999995 57.11 291.92999999999995 57.07H291.90999999999997C291.9 57.12 291.55999999999995 57.56 291.35999999999996 57.86L288.69999999999993 61.44H287.99999999999994Z " fill="#1d1d1b" fill-opacity="1" transform="matrix(1,0,0,1,-135,-9)"></path><path id="SvgjsPath1025" d="M295 56H295.73V58.3H296.59000000000003L298.22 56H299.08000000000004L297.20000000000005 58.58V58.6L299.29 61.44H298.40000000000003L296.6 58.949999999999996H295.73V61.44H295Z " fill="#1d1d1b" fill-opacity="1" transform="matrix(1,0,0,1,-135,-9)"></path><path id="SvgjsPath1026" d="M302.62 59.05V58.8H302.3C301.47 58.8 299.74 58.83 299.74 60.04C299.74 60.55 300.15000000000003 61.08 300.96000000000004 61.08C302.00000000000006 61.08 302.62000000000006 60 302.62000000000006 59.05ZM302.62 58.21V58.06C302.62 57.02 302.05 56.660000000000004 301.28000000000003 56.660000000000004C300.73 56.660000000000004 300.18 56.85 299.74 57.18000000000001L299.41 56.61000000000001C299.84000000000003 56.25000000000001 300.6 56.00000000000001 301.33000000000004 56.00000000000001C302.63000000000005 56.00000000000001 303.35 56.720000000000006 303.35 58.080000000000005V61.56H302.65000000000003V60.93C302.65000000000003 60.66 302.68 60.47 302.68 60.47H302.66C302.38000000000005 61.129999999999995 301.70000000000005 61.69 300.83000000000004 61.69C299.92 61.69 299.00000000000006 61.16 299.00000000000006 60.11C299.00000000000006 58.32 301.26000000000005 58.21 302.2900000000001 58.21Z " fill="#1d1d1b" fill-opacity="1" transform="matrix(1,0,0,1,-135,-9)"></path><path id="SvgjsPath1027" d="M146.78 29.71L167.74 17.14L165.13 15.71L143.87 27.990000000000002ZM155.71 34.88L176.63 22.340000000000003L174.07 20.870000000000005L152.79999999999998 33.190000000000005ZM164.51 40.01L185.47 27.439999999999998L182.85999999999999 26.009999999999998L161.55999999999997 38.3ZM164.06 10.36C164.91 9.879999999999999 165.95 9.879999999999999 166.81 10.36L194.23000000000002 25.38C194.27 25.39 194.29000000000002 25.419999999999998 194.32000000000002 25.439999999999998C194.49 25.54 194.64000000000001 25.65 194.79000000000002 25.79C194.81000000000003 25.81 194.84000000000003 25.83 194.87000000000003 25.86C195.03000000000003 26.009999999999998 195.17000000000004 26.189999999999998 195.29000000000002 26.38C195.32000000000002 26.43 195.34000000000003 26.48 195.37000000000003 26.529999999999998C195.46000000000004 26.679999999999996 195.52000000000004 26.849999999999998 195.58000000000004 27.009999999999998C195.60000000000005 27.069999999999997 195.62000000000003 27.139999999999997 195.64000000000004 27.2C195.69000000000005 27.4 195.72000000000006 27.599999999999998 195.73000000000005 27.81C195.73000000000005 27.83 195.74000000000004 27.849999999999998 195.74000000000004 27.88V52.67C195.74000000000004 54.260000000000005 194.45000000000005 55.550000000000004 192.86000000000004 55.550000000000004C191.27000000000004 55.550000000000004 189.98000000000005 54.260000000000005 189.98000000000005 52.67V32.94L168.31000000000006 45.57V69.36C168.31000000000006 70.96 167.03000000000006 72.25 165.44000000000005 72.25C163.85000000000005 72.25 162.56000000000006 70.96 162.56000000000006 69.36V45.57L140.75000000000006 32.85V52.66C140.75000000000006 54.26 139.47000000000006 55.55 137.87000000000006 55.55C136.29000000000005 55.55 135.00000000000006 54.26 135.00000000000006 52.66V27.919999999999998C135.00000000000006 26.63 135.84000000000006 25.549999999999997 137.00000000000006 25.18Z " fill="#f4b32c" fill-opacity="1" transform="matrix(1,0,0,1,-135,-9)"></path></svg>