<svg id="SvgjsSvg1028" xmlns="http://www.w3.org/2000/svg" version="1.1" xmlns:xlink="http://www.w3.org/1999/xlink" xmlns:svgjs="http://svgjs.com/svgjs" width="22" height="22" viewBox="0 0 22 22"><title>Shape</title><desc>Created with Avocode.</desc><defs id="SvgjsDefs1029"></defs><path id="SvgjsPath1030" d="M1136.17 54.27C1136.17 54.27 1137.8600000000001 53.31 1138.3000000000002 53.07C1138.7400000000002 52.84 1139.2000000000003 52.78 1139.4800000000002 52.95C1139.9000000000003 53.21 1143.4200000000003 55.550000000000004 1143.7200000000003 55.760000000000005C1144.0100000000002 55.970000000000006 1144.1600000000003 56.56 1143.7500000000002 57.14000000000001C1143.3400000000001 57.720000000000006 1141.4700000000003 60.02000000000001 1140.6700000000003 60.00000000000001C1139.8800000000003 59.970000000000006 1136.5700000000004 59.900000000000006 1130.3300000000004 53.66000000000001C1124.1000000000004 47.43000000000001 1124.0300000000004 44.12000000000001 1124.0000000000005 43.32000000000001C1123.9700000000005 42.53000000000001 1126.2700000000004 40.650000000000006 1126.8600000000004 40.25000000000001C1127.4400000000003 39.84000000000001 1128.0300000000004 39.99000000000001 1128.2400000000005 40.28000000000001C1128.4800000000005 40.61000000000001 1130.7900000000004 44.120000000000005 1131.0500000000004 44.52000000000001C1131.2200000000005 44.80000000000001 1131.1600000000003 45.25000000000001 1130.9200000000003 45.69000000000001C1130.6900000000003 46.140000000000015 1129.7300000000002 47.820000000000014 1129.7300000000002 47.820000000000014C1129.7300000000002 47.820000000000014 1130.4100000000003 48.990000000000016 1132.7100000000003 51.29000000000001C1135.0100000000002 53.59000000000001 1136.1700000000003 54.27000000000001 1136.1700000000003 54.27000000000001Z " fill="#ffb503" fill-opacity="1" transform="matrix(1,0,0,1,-1123,-39)"></path></svg>